<svg width="40" height="40" viewBox="0 0 40 40" fill="none" xmlns="http://www.w3.org/2000/svg">
<mask id="mask0_532_346" style="mask-type:alpha" maskUnits="userSpaceOnUse" x="0" y="0" width="40" height="40">
<rect width="40" height="40" fill="#D9D9D9"/>
</mask>
<g mask="url(#mask0_532_346)">
<path d="M25.4987 27.833L27.832 25.4997L21.6654 19.333V11.6663H18.332V20.6663L25.4987 27.833ZM19.9987 36.6663C17.6931 36.6663 15.5265 36.2288 13.4987 35.3538C11.4709 34.4788 9.70703 33.2913 8.20703 31.7913C6.70703 30.2913 5.51953 28.5275 4.64453 26.4997C3.76953 24.4719 3.33203 22.3052 3.33203 19.9997C3.33203 17.6941 3.76953 15.5275 4.64453 13.4997C5.51953 11.4719 6.70703 9.70801 8.20703 8.20801C9.70703 6.70801 11.4709 5.52051 13.4987 4.64551C15.5265 3.77051 17.6931 3.33301 19.9987 3.33301C22.3043 3.33301 24.4709 3.77051 26.4987 4.64551C28.5265 5.52051 30.2904 6.70801 31.7904 8.20801C33.2904 9.70801 34.4779 11.4719 35.3529 13.4997C36.2279 15.5275 36.6654 17.6941 36.6654 19.9997C36.6654 22.3052 36.2279 24.4719 35.3529 26.4997C34.4779 28.5275 33.2904 30.2913 31.7904 31.7913C30.2904 33.2913 28.5265 34.4788 26.4987 35.3538C24.4709 36.2288 22.3043 36.6663 19.9987 36.6663ZM19.9987 33.333C23.6931 33.333 26.839 32.0344 29.4362 29.4372C32.0334 26.84 33.332 23.6941 33.332 19.9997C33.332 16.3052 32.0334 13.1594 29.4362 10.5622C26.839 7.96495 23.6931 6.66634 19.9987 6.66634C16.3043 6.66634 13.1584 7.96495 10.5612 10.5622C7.96398 13.1594 6.66536 16.3052 6.66536 19.9997C6.66536 23.6941 7.96398 26.84 10.5612 29.4372C13.1584 32.0344 16.3043 33.333 19.9987 33.333Z" fill="#83AFD4"/>
</g>
</svg>
