<svg width="40" height="40" viewBox="0 0 40 40" fill="none" xmlns="http://www.w3.org/2000/svg">
<mask id="mask0_532_356" style="mask-type:alpha" maskUnits="userSpaceOnUse" x="0" y="0" width="40" height="40">
<rect width="40" height="40" fill="#D9D9D9"/>
</mask>
<g mask="url(#mask0_532_356)">
<path d="M20.0013 19.9997C20.918 19.9997 21.7027 19.6733 22.3555 19.0205C23.0082 18.3677 23.3346 17.583 23.3346 16.6663C23.3346 15.7497 23.0082 14.965 22.3555 14.3122C21.7027 13.6594 20.918 13.333 20.0013 13.333C19.0846 13.333 18.2999 13.6594 17.6471 14.3122C16.9944 14.965 16.668 15.7497 16.668 16.6663C16.668 17.583 16.9944 18.3677 17.6471 19.0205C18.2999 19.6733 19.0846 19.9997 20.0013 19.9997ZM20.0013 32.2497C23.3902 29.1386 25.9041 26.3122 27.543 23.7705C29.1819 21.2288 30.0013 18.9719 30.0013 16.9997C30.0013 13.9719 29.036 11.4927 27.1055 9.56217C25.1749 7.63162 22.8069 6.66634 20.0013 6.66634C17.1957 6.66634 14.8277 7.63162 12.8971 9.56217C10.9666 11.4927 10.0013 13.9719 10.0013 16.9997C10.0013 18.9719 10.8207 21.2288 12.4596 23.7705C14.0985 26.3122 16.6124 29.1386 20.0013 32.2497ZM20.0013 36.6663C15.5291 32.8608 12.1888 29.3261 9.98047 26.0622C7.77214 22.7983 6.66797 19.7775 6.66797 16.9997C6.66797 12.833 8.00825 9.51356 10.6888 7.04134C13.3694 4.56912 16.4735 3.33301 20.0013 3.33301C23.5291 3.33301 26.6332 4.56912 29.3138 7.04134C31.9944 9.51356 33.3346 12.833 33.3346 16.9997C33.3346 19.7775 32.2305 22.7983 30.0221 26.0622C27.8138 29.3261 24.4735 32.8608 20.0013 36.6663Z" fill="#83AFD4"/>
</g>
</svg>
