<svg width="40" height="40" viewBox="0 0 40 40" fill="none" xmlns="http://www.w3.org/2000/svg">
<mask id="mask0_532_351" style="mask-type:alpha" maskUnits="userSpaceOnUse" x="0" y="0" width="40" height="40">
<rect width="40" height="40" fill="#D9D9D9"/>
</mask>
<g mask="url(#mask0_532_351)">
<path d="M16.293 20.0003C15.293 20.0003 14.4596 19.6253 13.793 18.8753C13.1263 18.1253 12.8624 17.2503 13.0013 16.2503L13.543 12.167C13.7652 10.5837 14.4874 9.27116 15.7096 8.22949C16.9319 7.18783 18.3624 6.66699 20.0013 6.66699C21.6402 6.66699 23.0707 7.18783 24.293 8.22949C25.5152 9.27116 26.2374 10.5837 26.4596 12.167L27.0013 16.2503C27.1402 17.2503 26.8763 18.1253 26.2096 18.8753C25.543 19.6253 24.7096 20.0003 23.7096 20.0003H16.293ZM16.293 16.667H23.7096L23.168 12.667C23.0569 11.8892 22.7027 11.2503 22.1055 10.7503C21.5082 10.2503 20.8069 10.0003 20.0013 10.0003C19.1957 10.0003 18.4944 10.2503 17.8971 10.7503C17.2999 11.2503 16.9457 11.8892 16.8346 12.667L16.293 16.667ZM6.66797 33.3337V28.667C6.66797 27.7225 6.91102 26.8545 7.39714 26.0628C7.88325 25.2712 8.52908 24.667 9.33464 24.2503C11.0569 23.3892 12.8069 22.7434 14.5846 22.3128C16.3624 21.8823 18.168 21.667 20.0013 21.667C21.8346 21.667 23.6402 21.8823 25.418 22.3128C27.1957 22.7434 28.9457 23.3892 30.668 24.2503C31.4735 24.667 32.1194 25.2712 32.6055 26.0628C33.0916 26.8545 33.3346 27.7225 33.3346 28.667V33.3337H6.66797ZM10.0013 30.0003H30.0013V28.667C30.0013 28.3614 29.9249 28.0837 29.7721 27.8337C29.6194 27.5837 29.418 27.3892 29.168 27.2503C27.668 26.5003 26.1541 25.9378 24.6263 25.5628C23.0985 25.1878 21.5569 25.0003 20.0013 25.0003C18.4457 25.0003 16.9041 25.1878 15.3763 25.5628C13.8485 25.9378 12.3346 26.5003 10.8346 27.2503C10.5846 27.3892 10.3832 27.5837 10.2305 27.8337C10.0777 28.0837 10.0013 28.3614 10.0013 28.667V30.0003Z" fill="#83AFD4"/>
</g>
</svg>
